# xmcd CD database file
#
# Track frame offsets:
#	150
#	14914
#	29891
#	44162
#	58769
#	73084
#	87868
#	101365
#	115731
#	130283
#	143773
#	158670
#	171870
#	186577
#	199181
#	212357
#	226145
#	238133
#	249473
#	263172
#	277888
#
# Disc length: 3904 seconds
#
# Revision: 0
# Processed by: cddbd v1.5.1PL2 Copyright (c) Steve Scherf et al.
# Submitted via: CDex 1.51
#
DISCID=3a0f3e15
DTITLE=Billie Holiday - This Is Gold [Disc 3]
DYEAR=2005
DGENRE=Jazz
TTITLE0=Now or never
TTITLE1=Baby get lost
TTITLE2=Guilty
TTITLE3=If yoy were mine
TTITLE4=Baby, I don't cry over you
TTITLE5=Solitude
TTITLE6=I'll get by
TTITLE7=Deep song
TTITLE8=I cried for you
TTITLE9=My old flame
TTITLE10=I'm yours
TTITLE11=My man
TTITLE12=Do your duty
TTITLE13=Sugar
TTITLE14=Don't explain
TTITLE15=Easy living
TTITLE16=He's funny that way
TTITLE17=Big stuff
TTITLE18=It's a sin to tell a lie
TTITLE19=Keeps on raining
TTITLE20=My sweet hunk o' trash
EXTD=YEAR: 2005
EXTT0=
EXTT1=
EXTT2=
EXTT3=
EXTT4=
EXTT5=
EXTT6=
EXTT7=
EXTT8=
EXTT9=
EXTT10=
EXTT11=
EXTT12=
EXTT13=
EXTT14=
EXTT15=
EXTT16=
EXTT17=
EXTT18=
EXTT19=
EXTT20=
PLAYORDER=
